<svg xmlns="http://www.w3.org/2000/svg" fill="#006491" width="51.481" height="54.349" viewBox="0 0 51.481 54.349" role="img" alt="" title="Check out faster"><g><path d="M2.007 7.633l2.477-1.018L23.69 53.329l-2.477 1.019z"></path><path d="M3.783 11.981l2.477-1.018 8.847 21.518-2.477 1.018z"></path><path d="M16.564 36.515l-2.6-.65c.9-3.693 5.484-9.937 16.324-7.813a20.445 20.445 0 0018.256-5.594L40.826 3.645a22.806 22.806 0 01-19.953 5.547c-11.094-2.155-13.154 5.5-13.249 5.832l-2.6-.65c.9-3.629 5.468-9.921 16.356-7.8a20.239 20.239 0 0018.812-6.1 1.347 1.347 0 01.666-.428h.1a1.331 1.331 0 011.585.777l8.843 21.522a1.331 1.331 0 01-.254 1.411 22.933 22.933 0 01-21.316 6.926c-11.052-2.155-13.159 5.5-13.252 5.833z"></path><path d="M33.946 6.335l2.477-1.018 8.847 21.518-2.477 1.018zm-7.211 2.403l2.477-1.018 8.847 21.518-2.477 1.018zm-8.241-.801l2.477-1.018 8.847 21.518-2.477 1.018zm-7.581.838l2.477-1.018 8.847 21.518-2.477 1.018z"></path><path d="M13.614 29.288l-2.6-.65c.9-3.629 5.468-9.937 16.356-7.8a20.492 20.492 0 0018.765-6.099l2.076 1.585a22.917 22.917 0 01-21.364 7.132c-11.03-2.156-13.154 5.547-13.233 5.832zm-2.9-7.037l-2.615-.649c.9-3.629 5.468-9.921 16.356-7.8a20.508 20.508 0 0018.8-6.165l2.044 1.714a22.917 22.917 0 01-21.348 7.084c-11.097-2.171-13.158 5.499-13.237 5.816zM6.339 7.132a3.17 3.17 0 11-3.17-3.17 3.17 3.17 0 013.17 3.17"></path></g></svg>