<svg viewBox="0 0 22.58 38.11" xmlns="http://www.w3.org/2000/svg"><g fill="#fff" transform="translate(-.25 -.25)"><path d="m21.18 11.55c0 4.33-2.11 7.23-4.55 10.6a29.85 29.85 0 0 0 -5.1 9.37 29.8 29.8 0 0 0 -5.06-9.27c-2.47-3.39-4.57-6.32-4.57-10.7a9.64 9.64 0 0 1 19.28 0zm-4.65 0a5 5 0 1 0 -5 5 5 5 0 0 0 5-5z"/><path d="m14.87 11.55a3.33 3.33 0 1 0 -3.33 3.33 3.34 3.34 0 0 0 3.33-3.33zm-3.33-5a5 5 0 1 1 -5 5 5 5 0 0 1 5-5z"/><path d="m21.18 11.55a9.64 9.64 0 0 0 -19.28 0c0 4.38 2.12 7.31 4.57 10.7a29.8 29.8 0 0 1 5.06 9.27 29.85 29.85 0 0 1 5.1-9.37c2.44-3.37 4.55-6.27 4.55-10.6zm1.65 0c0 4.86-2.36 8.12-4.85 11.57-2.76 3.81-5.61 7.75-5.61 14.41a.83.83 0 1 1 -1.66 0c0-6.53-2.84-10.53-5.58-14.3-2.51-3.48-4.88-6.77-4.88-11.68a11.29 11.29 0 1 1 22.58 0z"/></g></svg>