<svg xmlns="http://www.w3.org/2000/svg" fill="#006491" width="66.068" height="67.562" viewBox="0 0 66.068 67.562" role="img" alt="" title="Earn free pizza"><g><path d="M41.985 25.457a4.881 4.881 0 015.172.189.381.381 0 00.591-.316l.003-10.772a.394.394 0 00-.395-.389A43.062 43.062 0 0010.68 35.346a.4.4 0 00.135.538l36.35 20.993a.385.385 0 00.58-.335l.01-22.522a.386.386 0 00-.605-.32 4.56 4.56 0 01-1.955.75 4.954 4.954 0 01-4.941-2.264 4.869 4.869 0 011.732-6.729zM24.473 36.434l-1.879-.503a3.523 3.523 0 01-1.414-6.018 3.008 3.008 0 012.918-.762l1.795.472a.391.391 0 00.472-.272l.478-1.784a3.008 3.008 0 012.122-2.149 3.52 3.52 0 014.504 4.234l-2.2 8.21a.391.391 0 01-.472.272zM42.215 47.6a4.874 4.874 0 111.784-6.658 4.88 4.88 0 01-1.785 6.658z"></path><path d="M7.542 33.983a.375.375 0 00.52-.144 46.1 46.1 0 0139.318-22.7.385.385 0 00.385-.38L47.76 6.26a.4.4 0 00-.396-.388 51.376 51.376 0 00-43.85 25.333.4.4 0 00.139.537z"></path></g></svg>