<svg xmlns="http://www.w3.org/2000/svg" fill="#006491" width="101.718" height="57.77" viewBox="0 0 101.718 57.77" role="img" alt="" title="AnyWare" class="program-details__icon"><g><path d="M50.918 57.771a1.355 1.355 0 01-1.213-.767l-21-42.827 2.425-1.194 19.788 40.348 19.611-40.344 2.425 1.19-20.912 42.791a1.355 1.355 0 01-1.123.8z"></path><path d="M26.53 15.59a1.355 1.355 0 01-1.248-.838l-2.888-6.953a1.355 1.355 0 01.7-1.783l1.783-.82a67.389 67.389 0 0151.9 0l1.89.838a1.355 1.355 0 01.7 1.783l-2.901 6.958a1.355 1.355 0 01-1.783.713l-1.64-.767-.178-.143c-.82-.339-1.676-.677-2.585-1s-1.569-.535-2.407-.784h-.2a57.049 57.049 0 00-30.646-.749h-.513a57.7 57.7 0 00-2.193.606l-1.426.464-.5.16-.41.125-.357.125c-.981.357-1.783.677-2.639 1.016h-.16l-1.658.767a1.355 1.355 0 01-.642.285zm45.996-1.266zM25.389 7.975l1.783 4.439.481-.232h.107a70.794 70.794 0 012.8-1.087l.464-.16.339-.107.517-.178 1.515-.5a63.708 63.708 0 012.3-.642h.2l.339-.089a59.83 59.83 0 0132.09.784h.26q1.391.428 2.567.856c.784.285 1.89.713 2.763 1.07h.107l.481.232 1.782-4.437-.642-.285a64.662 64.662 0 00-49.775 0z"></path><path d="M58.478 25.912a6.24 6.24 0 116.24-6.24 6.24 6.24 0 01-6.24 6.24zm0-9.77a3.566 3.566 0 103.566 3.566 3.566 3.566 0 00-3.566-3.565zM39.402 30.137l-1.212-2.422a3.566 3.566 0 10-3.173-6.311l-1.213-2.427a6.243 6.243 0 015.6 11.16zm11.517 8.949a6.24 6.24 0 116.24-6.24 6.24 6.24 0 01-6.24 6.24zm0-9.77a3.566 3.566 0 103.566 3.566 3.566 3.566 0 00-3.566-3.565zM35.234 53.527a1.355 1.355 0 01-1.194-.713L16.226 19.44a1.355 1.355 0 112.371-1.3l17.828 33.358a1.355 1.355 0 01-1.194 2z"></path><path d="M18.111 23.662l2.377-1.301 6.48 11.84-2.378 1.3z"></path><path d="M7.936 48.838a1.355 1.355 0 01-1.194-.7L.18 36.305a1.355 1.355 0 01.392-1.783 1.533 1.533 0 01.82-.285 11.178 11.178 0 009.128-5.919c3.209-6.061 8.094-5.776 10.233-4.778l-1.141 2.442c-.392-.16-3.958-1.569-6.7 3.566a13.745 13.745 0 01-9.431 7.131l5.117 9.36a11.16 11.16 0 008.361-5.848c3.3-6.008 8.183-5.758 10.322-4.76l-1.141 2.46c-.392-.178-3.976-1.569-6.721 3.566a13.906 13.906 0 01-11.448 7.364z"></path><path d="M6.721 33.789l2.377-1.301 6.48 11.84-2.378 1.3zm5.275-5.558l2.377-1.301 6.48 11.84-2.378 1.3z"></path><path d="M4.62 42.778v-2.71a11.178 11.178 0 009.074-5.883c3.209-6.061 8.094-5.776 10.233-4.778l-1.141 2.46.57-1.248-.553 1.23c-.392-.178-3.976-1.569-6.721 3.566A13.906 13.906 0 014.62 42.778zm9.627-23.961a3.156 3.156 0 10.927-2.246 3.156 3.156 0 00-.927 2.246zm52.342 34.708a1.355 1.355 0 01-1.194-2l17.828-33.386a1.357 1.357 0 112.389 1.286L67.784 52.778a1.355 1.355 0 01-1.195.747z"></path><path d="M74.845 34.206l6.478-11.836 2.377 1.3-6.478 11.837z"></path><path d="M93.884 48.839a13.906 13.906 0 01-11.43-7.363c-2.745-5.17-6.311-3.762-6.721-3.566l-1.141-2.46c2.139-1 7.024-1.284 10.233 4.778a11.231 11.231 0 008.361 5.848l5.045-9.377a13.745 13.745 0 01-9.431-7.131c-2.745-5.17-6.311-3.762-6.721-3.566l-1.105-2.514c2.139-1 7.024-1.284 10.233 4.778a11.267 11.267 0 009.147 5.918 1.355 1.355 0 01.767.25 1.408 1.408 0 01.446 1.783l-6.471 11.837a1.355 1.355 0 01-1.212.784z"></path><path d="M86.263 44.317l6.478-11.836 2.377 1.3-6.478 11.837zm-5.283-5.539l6.478-11.836 2.377 1.3-6.478 11.837z"></path><path d="M97.2 42.777a13.906 13.906 0 01-11.446-7.38c-2.817-5.349-6.544-3.67-6.703-3.57l-1.141-2.456c2.139-1 7.024-1.284 10.233 4.778a11.178 11.178 0 009.146 5.919zm-9.663-23.96a3.156 3.156 0 11-.927-2.246 3.156 3.156 0 01.927 2.246z"></path></g></svg>