<svg xmlns="http://www.w3.org/2000/svg" width="93.62" height="102.431" viewBox="0 0 93.62 102.431" role="img" alt="" class="rewards-info__icon rewards-info__icon--full" title="60 points = free pizza!"><path d="M49.814 63.315l-.636.378h-.02l-17.44 10.062a.448.448 0 00.02.776 5.487 5.487 0 012.366 2.207 5.546 5.546 0 01-9.6 5.548 5.45 5.45 0 01-.716-3.162.446.446 0 00-.656-.418l-6.145 3.54a.869.869 0 00-.3 1.233 41.771 41.771 0 0032.851 18.951.879.879 0 00.915-.875V85.587a.442.442 0 00-.656-.378 5.546 5.546 0 11-5.548-9.6 5.483 5.483 0 015.548.02.432.432 0 00.656-.378V63.673a.418.418 0 00-.639-.358zm-17.4 2.884a5.546 5.546 0 1110.34-2.565.429.429 0 00.656.378l5.111-2.943a.431.431 0 000-.756l-7.593-4.395L15.71 41.381a.853.853 0 00-1.213.358 41.744 41.744 0 000 37.9.889.889 0 001.213.358l18.931-10.916a.431.431 0 000-.756 5.455 5.455 0 01-2.227-2.126zm-7.179-4.872a5.546 5.546 0 112.028-7.576 5.555 5.555 0 01-2.028 7.576zm61.327 20.919l-14.536-8.392a.457.457 0 00-.557.1 5.53 5.53 0 01-9.088-.736 5.526 5.526 0 01-.378-4.733.432.432 0 00-.2-.537l-7.4-4.275h-.02l-.656-.378a.438.438 0 00-.656.378v37.882a.879.879 0 00.915.875 41.915 41.915 0 0032.851-18.951.864.864 0 00-.275-1.233zM66.675 92.269a5.546 5.546 0 112.028-7.576 5.555 5.555 0 01-2.028 7.576zm22.393-50.53a.889.889 0 00-1.213-.358L71.43 50.866a.426.426 0 00-.219.378 5.526 5.526 0 01-8.253 4.772.4.4 0 00-.418 0l-6.821 3.937h-.02l-.656.378a.431.431 0 000 .756l8.471 4.892a.459.459 0 00.477-.02c.139-.1.278-.179.418-.278a5.54 5.54 0 018.292 5.309.471.471 0 00.219.418l14.954 8.63a.853.853 0 001.213-.358 41.89 41.89 0 00-.019-37.941zm-4.275 21.755a5.546 5.546 0 112.028-7.576 5.555 5.555 0 01-2.029 7.576zM50.45 57.626v-25.61a.442.442 0 00-.7-.358 5.172 5.172 0 01-2.227.855 5.672 5.672 0 01-5.628-2.565 5.535 5.535 0 017.862-7.437.436.436 0 00.676-.358V9.863a.441.441 0 00-.437-.437 49.044 49.044 0 00-41.782 24.1.427.427 0 00.159.6l41.4 23.882a.447.447 0 00.677-.382zM34.184 27.045l-2.506 9.346a.438.438 0 01-.537.318l-7.218-1.929-2.128-.577a4 4 0 01-1.611-6.841 3.4 3.4 0 013.321-.875l2.052.539a.438.438 0 00.537-.318l.537-2.048a3.411 3.411 0 012.406-2.426 4.019 4.019 0 015.147 4.811zm9.943 20.422a5.546 5.546 0 112.03-7.577 5.555 5.555 0 01-2.03 7.577z"></path><path d="M24.221 13.025a52.207 52.207 0 0125.791-7.02.441.441 0 00.437-.437V.437A.441.441 0 0050.013 0 58.558 58.558 0 00.061 28.814a.427.427 0 00.159.6l4.434 2.562a.444.444 0 00.6-.159 52.107 52.107 0 0118.967-18.792zm29.51 45.041l6.761-3.9a.446.446 0 00.179-.577 5.547 5.547 0 019.584-5.526.438.438 0 00.577.139l15.709-9.068a.869.869 0 00.3-1.233A41.77 41.77 0 0053.99 18.954a.9.9 0 00-.935.875v37.862a.47.47 0 00.676.375zm6.622-27.183a5.546 5.546 0 11-2.028 7.576 5.555 5.555 0 012.03-7.577z"></path></svg>