<svg viewBox="0 0 48 47.23" xmlns="http://www.w3.org/2000/svg"><g fill="#fff" transform="translate(0 -.39)"><path d="m44.5 21.11h-41a3.51 3.51 0 0 0 -3.5 3.5v10a3.5 3.5 0 0 0 3.5 3.5h41a3.51 3.51 0 0 0 3.5-3.5v-10a3.52 3.52 0 0 0 -3.5-3.5zm-35.75 12.2a3.75 3.75 0 1 1 3.75-3.75 3.74 3.74 0 0 1 -3.75 3.75zm19.75-1.1h-9v-1.4h9zm0-3.8h-9v-1.41h9zm10.75 4.9a3.75 3.75 0 1 1 3.75-3.75 3.74 3.74 0 0 1 -3.75 3.75z"/><path d="m5.8 44.61a3 3 0 0 0 6 0v-4h-6z"/><path d="m36.3 44.61a3 3 0 0 0 6 0v-4h-6z"/><path d="m10.5 11.31a2.71 2.71 0 0 1 2.7-2.7h21.6a2.71 2.71 0 0 1 2.7 2.7v7.8h2.5v-8a5 5 0 0 0 -5-5h-4.5l-5.82-5.45a1 1 0 0 0 -1.36 0l-5.82 5.45h-4.5a5 5 0 0 0 -5 5v8h2.5z"/></g></svg>