<svg xmlns="http://www.w3.org/2000/svg" fill="#006491" width="50.14" height="50.14" viewBox="0 0 50.14 50.14" role="img" alt="" class="rewards-info__icon--click" title="Earn points any way you order"><g><path d="M25.07 49.64a24.57 24.57 0 1124.57-24.57 24.57 24.57 0 01-24.57 24.57zm0-47.38a22.81 22.81 0 1022.81 22.81A22.81 22.81 0 0025.07 2.26z"></path><path d="M23.218 35.363h-.079a.873.873 0 01-.728-.542l-7.568-18.8a.873.873 0 011.134-1.139l18.814 7.568a.873.873 0 01.159 1.508l-4.366 2.792 4.34 4.34a.873.873 0 010 1.244l-2.647 2.646a.873.873 0 01-1.244 0l-4.3-4.406-2.779 4.34a.873.873 0 01-.741.45zm3.374-7.026a.873.873 0 01.622.251l4.485 4.485 1.323-1.323-4.5-4.5a.873.873 0 01.146-1.323l3.85-2.461-15.267-6.229 6.152 15.335 2.448-3.824a.873.873 0 01.648-.4z"></path></g></svg>