<svg xmlns="http://www.w3.org/2000/svg" fill="#006491" width="44.3" height="54.397" viewBox="0 0 44.3 54.397" role="img" alt="" title="Get exclusive pizza deals"><g><path d="M24.595 54.387a3.585 3.585 0 01-.533 0 3.469 3.469 0 01-2.286-1.39l-18.8-25.566a6.742 6.742 0 01-1.065-4.781v-9.612a1.377 1.377 0 010-.3c.4-1.793 7.327-6.911 9.184-6.755h.286l9.184 2.859a6.742 6.742 0 014.209 2.429l18.837 25.67a3.5 3.5 0 01-.689 4.859L26.665 53.713a3.469 3.469 0 01-2.07.674zM4.654 13.413v9.42a1.3 1.3 0 010 .3 4.066 4.066 0 00.572 2.7l18.745 25.515a.766.766 0 001.065.169l16.213-11.978a.779.779 0 00.156-1.065L22.62 12.986a4.066 4.066 0 00-2.4-1.3h-.286l-8.99-2.793a25.981 25.981 0 00-6.29 4.52z"></path><path d="M12.605 23.105a5.469 5.469 0 113.235-1.068 5.469 5.469 0 01-3.235 1.065zm0-8.236a2.715 2.715 0 00-1.624.533 2.754 2.754 0 102.066-.546z"></path><path d="M0 1.588L2.218 0l11.124 15.538-2.218 1.588z"></path></g></svg>