<svg xmlns="http://www.w3.org/2000/svg" width="118.378" height="121.056" viewBox="0 0 118.378 121.056" role="img" aria-hidden="true" focusable="false" class="piece-of-the-pie-rewards-banner__icon"><g><path d="M75.226 45.615a8.745 8.745 0 019.268.337.682.682 0 001.06-.564V26.09a.707.707 0 00-.708-.696 77.157 77.157 0 00-65.72 37.943.715.715 0 00.249.962l65.132 37.612a.689.689 0 001.04-.6l.022-40.348a.692.692 0 00-1.085-.575 8.17 8.17 0 01-3.499 1.339 8.876 8.876 0 01-8.853-4.056 8.724 8.724 0 013.094-12.056zM43.85 65.28l-3.369-.899c-4.422-1.185-6.439-6.836-2.531-10.784a5.39 5.39 0 015.225-1.371l3.215.846a.7.7 0 00.847-.488l.856-3.198a5.39 5.39 0 013.8-3.839c5.387-1.417 9.256 3.165 8.074 7.584l-3.943 14.71a.7.7 0 01-.846.49zm31.79 20.007a8.733 8.733 0 113.196-11.93 8.744 8.744 0 01-3.198 11.93z"></path><path d="M13.512 60.89a.672.672 0 00.932-.257A82.6 82.6 0 0184.89 19.96a.69.69 0 00.689-.679V11.22a.707.707 0 00-.709-.696A92.054 92.054 0 006.29 55.915a.715.715 0 00.25.961z"></path></g></svg>